<svg width="60" height="60" viewBox="0 0 60 60" fill="none" xmlns="http://www.w3.org/2000/svg">
<path d="M30.0001 3.03C6.7693 3.03 -5.5751 30.6492 9.8227 47.9148C12.3572 50.7614 15.4653 53.0395 18.9429 54.5994C22.4204 56.1594 26.1887 56.9658 30.0001 56.9658C33.8115 56.9658 37.5798 56.1594 41.0573 54.5994C44.5349 53.0395 47.643 50.7614 50.1775 47.9148C65.5747 30.6498 53.2315 3.03 30.0001 3.03ZM42.7381 51.7092V46.452C42.7381 46.2133 42.6433 45.9844 42.4745 45.8156C42.3057 45.6468 42.0768 45.552 41.8381 45.552C41.5994 45.552 41.3705 45.6468 41.2017 45.8156C41.0329 45.9844 40.9381 46.2133 40.9381 46.452V52.6602C37.5283 54.3117 33.7888 55.1697 30.0001 55.1697C26.2114 55.1697 22.4719 54.3117 19.0621 52.6602V46.452C19.0621 46.2133 18.9673 45.9844 18.7985 45.8156C18.6297 45.6468 18.4008 45.552 18.1621 45.552C17.9234 45.552 17.6945 45.6468 17.5257 45.8156C17.3569 45.9844 17.2621 46.2133 17.2621 46.452V51.7092C15.0796 50.4296 13.1019 48.8291 11.3953 46.9614C11.4051 44.6203 12.3415 42.3783 13.9997 40.7256C15.6579 39.0729 17.903 38.144 20.2441 38.142H24.9097L29.1001 40.2348V47.85C29.1001 48.0887 29.1949 48.3176 29.3637 48.4864C29.5325 48.6552 29.7614 48.75 30.0001 48.75C30.2388 48.75 30.4677 48.6552 30.6365 48.4864C30.8053 48.3176 30.9001 48.0887 30.9001 47.85V40.2348L35.0905 38.142H39.7561C42.0973 38.144 44.3425 39.073 46.0007 40.7258C47.6589 42.3786 48.5952 44.6208 48.6049 46.962C46.8983 48.8295 44.9206 50.4298 42.7381 51.7092ZM30.0001 38.6724L27.0541 37.2V33.3552C28.9828 33.8815 31.0174 33.8815 32.9461 33.3552V37.2L30.0001 38.6724ZM33.5155 31.2804H33.5125C32.0648 31.8533 30.4991 32.0636 28.9516 31.8929C27.404 31.7223 25.9217 31.1759 24.6337 30.3014C23.3456 29.4268 22.2909 28.2506 21.5614 26.8752C20.8319 25.4998 20.4497 23.9669 20.4481 22.41V20.952C20.4481 18.4187 21.4545 15.9891 23.2458 14.1977C25.0372 12.4064 27.4667 11.4 30.0001 11.4C32.5334 11.4 34.963 12.4064 36.7544 14.1977C38.5457 15.9891 39.5521 18.4187 39.5521 20.952V22.41C39.5526 24.3237 38.9771 26.1932 37.9005 27.7753C36.8238 29.3573 35.2959 30.5787 33.5155 31.2804ZM50.2165 45.0204C49.7551 42.5827 48.458 40.3822 46.5486 38.7981C44.6392 37.2139 42.2371 36.3454 39.7561 36.342H34.8781C34.6885 36.342 34.7461 36.822 34.7461 32.6964C36.72 31.7989 38.3931 30.3511 39.5648 28.5266C40.7366 26.7021 41.3571 24.5783 41.3521 22.41V20.952C41.3521 17.9413 40.1561 15.0538 38.0272 12.9249C35.8983 10.796 33.0108 9.6 30.0001 9.6C26.9894 9.6 24.1019 10.796 21.973 12.9249C19.8441 15.0538 18.6481 17.9413 18.6481 20.952V22.41C18.6411 24.5799 19.2607 26.7056 20.4326 28.5318C21.6044 30.358 23.2787 31.8071 25.2541 32.7048V36.36C25.1047 36.3378 25.6339 36.345 20.2441 36.345C17.7635 36.3482 15.3617 37.2164 13.4524 38.7999C11.543 40.3834 10.2457 42.5832 9.7837 45.0204C-2.4893 28.5798 9.23049 4.83 30.0001 4.83C50.7697 4.83 62.4931 28.5738 50.2165 45.021V45.0204Z" fill="black"/>
</svg>
