<svg width="48" height="48" viewBox="0 0 48 48" fill="none" xmlns="http://www.w3.org/2000/svg">
<path d="M30.0703 16.4194C29.946 16.4194 29.8268 16.4688 29.7389 16.5567C29.6509 16.6446 29.6016 16.7638 29.6016 16.8881V30.1491C29.6016 30.2734 29.6509 30.3926 29.7389 30.4805C29.8268 30.5684 29.946 30.6178 30.0703 30.6178C30.1946 30.6178 30.3139 30.5684 30.4018 30.4805C30.4897 30.3926 30.5391 30.2734 30.5391 30.1491V16.8881C30.5391 16.7638 30.4897 16.6446 30.4018 16.5567C30.3139 16.4688 30.1946 16.4194 30.0703 16.4194Z" fill="white"/>
<path d="M25.8178 17.8744C25.6935 17.8744 25.5743 17.9238 25.4864 18.0117C25.3984 18.0996 25.3491 18.2188 25.3491 18.3431V28.695C25.3491 28.8193 25.3984 28.9385 25.4864 29.0265C25.5743 29.1144 25.6935 29.1637 25.8178 29.1637C25.9421 29.1637 26.0614 29.1144 26.1493 29.0265C26.2372 28.9385 26.2866 28.8193 26.2866 28.695V18.3431C26.2866 18.2188 26.2372 18.0996 26.1493 18.0117C26.0614 17.9238 25.9421 17.8744 25.8178 17.8744Z" fill="white"/>
<path d="M34.125 17.8744C34.0007 17.8744 33.8815 17.9238 33.7935 18.0117C33.7056 18.0996 33.6562 18.2188 33.6562 18.3431V28.695C33.6562 28.8193 33.7056 28.9385 33.7935 29.0265C33.8815 29.1144 34.0007 29.1637 34.125 29.1637C34.2493 29.1637 34.3685 29.1144 34.4565 29.0265C34.5444 28.9385 34.5938 28.8193 34.5938 28.695V18.3431C34.5938 18.2188 34.5444 18.0996 34.4565 18.0117C34.3685 17.9238 34.2493 17.8744 34.125 17.8744Z" fill="white"/>
<path d="M45.2212 13.4419C44.9474 13.1453 44.6153 12.9084 44.2458 12.7459C43.8762 12.5835 43.4771 12.499 43.0734 12.4978H15.3113C14.9076 12.499 14.5085 12.5834 14.1389 12.7459C13.7693 12.9083 13.4372 13.1452 13.1634 13.4419C13.0836 13.5268 13.0085 13.616 12.9384 13.7091L12.2053 6.10875C12.1286 5.29399 11.7502 4.53729 11.1444 3.98712C10.5386 3.43696 9.74899 3.13304 8.93063 3.135H2.34375C2.21943 3.135 2.1002 3.18439 2.01229 3.2723C1.92439 3.36021 1.875 3.47943 1.875 3.60375C1.875 3.72807 1.92439 3.8473 2.01229 3.93521C2.1002 4.02312 2.21943 4.0725 2.34375 4.0725H8.93063C9.51632 4.06998 10.0817 4.28683 10.5155 4.68036C10.9493 5.0739 11.22 5.61559 11.2744 6.19875L12.3553 17.4066L12.8241 25.3978L12.7988 31.7728C12.8 33.4507 13.4668 35.0596 14.6528 36.2464C15.8387 37.4333 17.4471 38.1013 19.125 38.1038H43.0594C43.1837 38.1038 43.3029 38.0544 43.3908 37.9665C43.4787 37.8786 43.5281 37.7593 43.5281 37.635C43.5281 37.5107 43.4787 37.3915 43.3908 37.3035C43.3029 37.2156 43.1837 37.1663 43.0594 37.1663H19.125C17.696 37.1658 16.3255 36.5986 15.3141 35.5891C14.3027 34.5796 13.7329 33.2102 13.7297 31.7813V31.5403C14.0059 32.0366 14.3623 32.4839 14.7844 32.8641C15.6423 33.64 16.7561 34.0722 17.9128 34.0781H40.4719C41.3509 34.0767 42.2115 33.8257 42.9534 33.3544C44.3531 32.4684 45.2494 30.9028 45.3506 29.1656L46.1184 15.96C46.1477 15.5013 46.0832 15.0415 45.929 14.6086C45.7747 14.1757 45.5339 13.7787 45.2212 13.4419ZM45.1819 15.9009L44.4141 29.1066C44.3297 30.5428 43.5966 31.8328 42.4519 32.5575C41.86 32.9341 41.1734 33.135 40.4719 33.1369H17.9138C16.9878 33.1309 16.0966 32.7838 15.4106 32.1619C14.5474 31.3719 14.0295 30.2742 13.9688 29.1056L13.3022 17.6363C13.3058 17.6026 13.3058 17.5687 13.3022 17.535L13.2825 17.3344L13.1991 15.9C13.1771 15.5698 13.2227 15.2386 13.3329 14.9265C13.4432 14.6145 13.6158 14.3282 13.8403 14.085C14.0269 13.8817 14.2534 13.7191 14.5057 13.6073C14.758 13.4955 15.0306 13.437 15.3066 13.4353H43.0744C43.3503 13.437 43.623 13.4955 43.8752 13.6073C44.1275 13.7191 44.354 13.8817 44.5406 14.085C44.7649 14.3283 44.9373 14.6147 45.0475 14.9267C45.1578 15.2387 45.2035 15.5698 45.1819 15.9V15.9009Z" fill="white"/>
<path d="M21.4341 38.7497C20.7817 38.7497 20.1441 38.9431 19.6017 39.3055C19.0593 39.6679 18.6366 40.183 18.387 40.7857C18.1374 41.3883 18.072 42.0515 18.1993 42.6912C18.3266 43.331 18.6407 43.9187 19.1019 44.3799C19.5632 44.8412 20.1508 45.1553 20.7906 45.2826C21.4304 45.4098 22.0935 45.3445 22.6962 45.0949C23.2988 44.8453 23.8139 44.4225 24.1763 43.8802C24.5387 43.3378 24.7322 42.7001 24.7322 42.0478C24.7312 41.1734 24.3834 40.3351 23.7651 39.7168C23.1468 39.0985 22.3085 38.7507 21.4341 38.7497ZM21.4341 44.4084C20.9672 44.4084 20.5108 44.27 20.1226 44.0106C19.7344 43.7512 19.4318 43.3825 19.2531 42.9512C19.0744 42.5198 19.0277 42.0452 19.1188 41.5873C19.2099 41.1294 19.4347 40.7087 19.7648 40.3786C20.095 40.0485 20.5156 39.8236 20.9735 39.7325C21.4314 39.6415 21.9061 39.6882 22.3374 39.8669C22.7688 40.0455 23.1375 40.3481 23.3968 40.7363C23.6562 41.1245 23.7947 41.5809 23.7947 42.0478C23.7939 42.6737 23.545 43.2737 23.1024 43.7162C22.6599 44.1587 22.0599 44.4077 21.4341 44.4084Z" fill="white"/>
<path d="M37.3969 38.7497C36.7446 38.7497 36.1069 38.9431 35.5645 39.3055C35.0222 39.6679 34.5994 40.183 34.3498 40.7857C34.1002 41.3883 34.0349 42.0515 34.1621 42.6912C34.2894 43.331 34.6035 43.9187 35.0648 44.3799C35.526 44.8412 36.1137 45.1553 36.7534 45.2826C37.3932 45.4098 38.0564 45.3445 38.659 45.0949C39.2617 44.8453 39.7768 44.4225 40.1392 43.8802C40.5016 43.3378 40.695 42.7001 40.695 42.0478C40.694 41.1734 40.3462 40.3351 39.7279 39.7168C39.1096 39.0985 38.2713 38.7507 37.3969 38.7497ZM37.3969 44.4084C36.93 44.4084 36.4736 44.27 36.0854 44.0106C35.6972 43.7512 35.3946 43.3825 35.2159 42.9512C35.0373 42.5198 34.9905 42.0452 35.0816 41.5873C35.1727 41.1294 35.3975 40.7087 35.7277 40.3786C36.0578 40.0485 36.4784 39.8236 36.9363 39.7325C37.3943 39.6415 37.8689 39.6882 38.3003 39.8669C38.7316 40.0455 39.1003 40.3481 39.3597 40.7363C39.6191 41.1245 39.7575 41.5809 39.7575 42.0478C39.7568 42.6737 39.5078 43.2737 39.0653 43.7162C38.6227 44.1587 38.0227 44.4077 37.3969 44.4084Z" fill="white"/>
</svg>
