<svg width="48" height="48" viewBox="0 0 48 48" fill="none" xmlns="http://www.w3.org/2000/svg">
<path d="M24 2.424C5.41534 2.424 -4.46018 24.5194 7.85806 38.3318C9.88566 40.6091 12.3722 42.4316 15.1542 43.6795C17.9362 44.9275 20.9509 45.5727 24 45.5727C27.0491 45.5727 30.0637 44.9275 32.8458 43.6795C35.6278 42.4316 38.1143 40.6091 40.1419 38.3318C52.4597 24.5198 42.5851 2.424 24 2.424ZM34.1904 41.3674V37.1616C34.1904 36.9706 34.1145 36.7875 33.9795 36.6525C33.8445 36.5175 33.6613 36.4416 33.4704 36.4416C33.2794 36.4416 33.0963 36.5175 32.9613 36.6525C32.8262 36.7875 32.7504 36.9706 32.7504 37.1616V42.1282C30.0225 43.4494 27.0309 44.1357 24 44.1357C20.969 44.1357 17.9774 43.4494 15.2496 42.1282V37.1616C15.2496 36.9706 15.1737 36.7875 15.0387 36.6525C14.9037 36.5175 14.7205 36.4416 14.5296 36.4416C14.3386 36.4416 14.1555 36.5175 14.0205 36.6525C13.8854 36.7875 13.8096 36.9706 13.8096 37.1616V41.3674C12.0636 40.3437 10.4814 39.0633 9.11614 37.5691C9.12401 35.6962 9.8731 33.9026 11.1997 32.5805C12.5262 31.2584 14.3223 30.5152 16.1952 30.5136H19.9277L23.28 32.1878V38.28C23.28 38.471 23.3558 38.6541 23.4909 38.7891C23.6259 38.9241 23.809 39 24 39C24.1909 39 24.3741 38.9241 24.5091 38.7891C24.6441 38.6541 24.72 38.471 24.72 38.28V32.1878L28.0723 30.5136H31.8048C33.6778 30.5152 35.4739 31.2584 36.8005 32.5807C38.127 33.9029 38.8761 35.6966 38.8838 37.5696C37.5185 39.0636 35.9364 40.3438 34.1904 41.3674ZM24 30.9379L21.6432 29.76V26.6842C23.1862 27.1052 24.8138 27.1052 26.3568 26.6842V29.76L24 30.9379ZM26.8123 25.0243H26.8099C25.6518 25.4826 24.3992 25.6509 23.1611 25.5143C21.9231 25.3778 20.7373 24.9407 19.7068 24.2411C18.6764 23.5414 17.8326 22.6005 17.249 21.5002C16.6654 20.3998 16.3596 19.1735 16.3584 17.928V16.7616C16.3584 14.7349 17.1635 12.7912 18.5966 11.3582C20.0296 9.92509 21.9733 9.12 24 9.12C26.0267 9.12 27.9703 9.92509 29.4034 11.3582C30.8365 12.7912 31.6416 14.7349 31.6416 16.7616V17.928C31.642 19.4589 31.1816 20.9546 30.3203 22.2202C29.459 23.4859 28.2366 24.463 26.8123 25.0243ZM40.1731 36.0163C39.804 34.0661 38.7663 32.3058 37.2388 31.0385C35.7113 29.7711 33.7896 29.0763 31.8048 29.0736H27.9024C27.7507 29.0736 27.7968 29.4576 27.7968 26.1571C29.3759 25.4391 30.7144 24.2809 31.6518 22.8213C32.5892 21.3617 33.0856 19.6627 33.0816 17.928V16.7616C33.0816 14.353 32.1248 12.0431 30.4216 10.3399C28.7185 8.6368 26.4086 7.68 24 7.68C21.5914 7.68 19.2814 8.6368 17.5783 10.3399C15.8752 12.0431 14.9184 14.353 14.9184 16.7616V17.928C14.9128 19.6639 15.4085 21.3645 16.346 22.8254C17.2834 24.2864 18.6228 25.4456 20.2032 26.1638V29.088C20.0837 29.0702 20.507 29.076 16.1952 29.076C14.2107 29.0786 12.2893 29.7731 10.7618 31.0399C9.23434 32.3068 8.19643 34.0666 7.82686 36.0163C-1.99154 22.8638 7.3843 3.864 24 3.864C40.6157 3.864 49.9944 22.859 40.1731 36.0168V36.0163Z" fill="white"/>
</svg>
