<svg width="32" height="32" viewBox="0 0 32 32" fill="none" xmlns="http://www.w3.org/2000/svg">
<g clip-path="url(#clip0_5_54)">
<path d="M31.2375 30.9772L22.2603 21.6411C24.5501 19.3446 25.9686 16.1788 25.9686 12.6874C25.9686 5.6912 20.2774 0 13.2813 0C6.28507 0 0.593872 5.6912 0.593872 12.6874C0.593872 19.6836 6.28507 25.3748 13.2813 25.3748C16.3522 25.3748 19.1706 24.277 21.3673 22.4555L30.3663 31.8145C30.4847 31.9384 30.643 32 30.8019 32C30.953 32 31.1034 31.9438 31.2206 31.8314C31.4611 31.6 31.4683 31.2176 31.2375 30.9772ZM13.2813 24.1664C6.95146 24.1664 1.80219 19.0172 1.80219 12.6874C1.80219 6.35759 6.95146 1.20832 13.2813 1.20832C19.6111 1.20832 24.7603 6.35759 24.7603 12.6874C24.7603 19.0172 19.6104 24.1664 13.2813 24.1664Z" fill="#717070"/>
</g>
<defs>
<clipPath id="clip0_5_54">
<rect width="32" height="32" fill="white"/>
</clipPath>
</defs>
</svg>
